<svg xmlns="http://www.w3.org/2000/svg" style="display: none;">
	<symbol id="icon-duration" viewBox="0 0 16 16">
		<path d="M8 1.5a6.5 6.5 0 100 13 6.5 6.5 0 000-13zM0 8a8 8 0 1116 0A8 8 0 010 8z" />
		<path d="M8 3.25a.75.75 0 01.75.75v3.25H11a.75.75 0 010 1.5H7.25V4A.75.75 0 018 3.25z" />
	</symbol>
	<symbol id="icon-arrow-left" viewBox="0 0 24 24">
		<path d="M15.957 2.793a1 1 0 010 1.414L8.164 12l7.793 7.793a1 1 0 11-1.414 1.414L5.336 12l9.207-9.207a1 1 0 011.414 0z" />
	</symbol>
	<symbol id="icon-arrow-right" viewBox="0 0 24 24">
		<path d="M8.043 2.793a1 1 0 000 1.414L15.836 12l-7.793 7.793a1 1 0 101.414 1.414L18.664 12 9.457 2.793a1 1 0 00-1.414 0z" />
	</symbol>
	<symbol id="icon-logo-white" viewBox="0 0 1134 340">
		<path d="M8 171c0 92 76 168 168 168s168-76 168-168S268 4 176 4 8 79 8 171zm230 78c-39-24-89-30-147-17-14 2-16-18-4-20 64-15 118-8 162 19 11 7 0 24-11 18zm17-45c-45-28-114-36-167-20-17 5-23-21-7-25 61-18 136-9 188 23 14 9 0 31-14 22zM80 133c-17 6-28-23-9-30 59-18 159-15 221 22 17 9 1 37-17 27-54-32-144-35-195-19zm379 91c-17 0-33-6-47-20-1 0-1 1-1 1l-16 19c-1 1-1 2 0 3 18 16 40 24 64 24 34 0 55-19 55-47 0-24-15-37-50-46-29-7-34-12-34-22s10-16 23-16 25 5 39 15c0 0 1 1 2 1s1-1 1-1l14-20c1-1 1-1 0-2-16-13-35-20-56-20-31 0-53 19-53 46 0 29 20 38 52 46 28 6 32 12 32 22 0 11-10 17-25 17zm95-77v-13c0-1-1-2-2-2h-26c-1 0-2 1-2 2v147c0 1 1 2 2 2h26c1 0 2-1 2-2v-46c10 11 21 16 36 16 27 0 54-21 54-61s-27-60-54-60c-15 0-26 5-36 17zm30 78c-18 0-31-15-31-35s13-34 31-34 30 14 30 34-12 35-30 35zm68-34c0 34 27 60 62 60s62-27 62-61-26-60-61-60-63 27-63 61zm30-1c0-20 13-34 32-34s33 15 33 35-13 34-32 34-33-15-33-35zm140-58v-29c0-1 0-2-1-2h-26c-1 0-2 1-2 2v29h-13c-1 0-2 1-2 2v22c0 1 1 2 2 2h13v58c0 23 11 35 34 35 9 0 18-2 25-6 1 0 1-1 1-2v-21c0-1 0-2-1-2h-2c-5 3-11 4-16 4-8 0-12-4-12-12v-54h30c1 0 2-1 2-2v-22c0-1-1-2-2-2h-30zm129-3c0-11 4-15 13-15 5 0 10 0 15 2h1s1-1 1-2V93c0-1 0-2-1-2-5-2-12-3-22-3-24 0-36 14-36 39v5h-13c-1 0-2 1-2 2v22c0 1 1 2 2 2h13v89c0 1 1 2 2 2h26c1 0 1-1 1-2v-89h25l37 89c-4 9-8 11-14 11-5 0-10-1-15-4h-1l-1 1-9 19c0 1 0 3 1 3 9 5 17 7 27 7 19 0 30-9 39-33l45-116v-2c0-1-1-1-2-1h-27c-1 0-1 1-1 2l-28 78-30-78c0-1-1-2-2-2h-44v-3zm-83 3c-1 0-2 1-2 2v113c0 1 1 2 2 2h26c1 0 1-1 1-2V134c0-1 0-2-1-2h-26zm-6-33c0 10 9 19 19 19s18-9 18-19-8-18-18-18-19 8-19 18zm245 69c10 0 19-8 19-18s-9-18-19-18-18 8-18 18 8 18 18 18zm0-34c9 0 17 7 17 16s-8 16-17 16-16-7-16-16 7-16 16-16zm4 18c3-1 5-3 5-6 0-4-4-6-8-6h-8v19h4v-6h4l4 6h5zm-3-9c2 0 4 1 4 3s-2 3-4 3h-4v-6h4z" />
	</symbol>
	<symbol id="icon-sidebar-home" viewBox="0 0 24 24">
		<path d="M12.5 3.247a1 1 0 00-1 0L4 7.577V20h4.5v-6a1 1 0 011-1h5a1 1 0 011 1v6H20V7.577l-7.5-4.33zm-2-1.732a3 3 0 013 0l7.5 4.33a2 2 0 011 1.732V21a1 1 0 01-1 1h-6.5a1 1 0 01-1-1v-6h-3v6a1 1 0 01-1 1H3a1 1 0 01-1-1V7.577a2 2 0 011-1.732l7.5-4.33z" />
	</symbol>
	<symbol id="icon-sidebar-home-active" viewBox="0 0 24 24">
		<path d="M13.5 1.515a3 3 0 00-3 0L3 5.845a2 2 0 00-1 1.732V21a1 1 0 001 1h6a1 1 0 001-1v-6h4v6a1 1 0 001 1h6a1 1 0 001-1V7.577a2 2 0 00-1-1.732l-7.5-4.33z" />
	</symbol>
	<symbol id="icon-sidebar-search" viewBox="0 0 24 24">
		<path d="M10.533 1.279c-5.18 0-9.407 4.14-9.407 9.279s4.226 9.279 9.407 9.279c2.234 0 4.29-.77 5.907-2.058l4.353 4.353a1 1 0 101.414-1.414l-4.344-4.344a9.157 9.157 0 002.077-5.816c0-5.14-4.226-9.28-9.407-9.28zm-7.407 9.279c0-4.006 3.302-7.28 7.407-7.28s7.407 3.274 7.407 7.28-3.302 7.279-7.407 7.279-7.407-3.273-7.407-7.28z" />
	</symbol>
	<symbol id="icon-sidebar-search-active" viewBox="0 0 24 24">
		<path d="M15.356 10.558c0 2.623-2.16 4.75-4.823 4.75-2.664 0-4.824-2.127-4.824-4.75s2.16-4.75 4.824-4.75c2.664 0 4.823 2.127 4.823 4.75z">
		</path>
		<path d="M1.126 10.558c0-5.14 4.226-9.28 9.407-9.28 5.18 0 9.407 4.14 9.407 9.28a9.157 9.157 0 01-2.077 5.816l4.344 4.344a1 1 0 01-1.414 1.414l-4.353-4.353a9.454 9.454 0 01-5.907 2.058c-5.18 0-9.407-4.14-9.407-9.28zm9.407-7.28c-4.105 0-7.407 3.274-7.407 7.28s3.302 7.279 7.407 7.279 7.407-3.273 7.407-7.28c0-4.005-3.302-7.278-7.407-7.278z">
		</path>
	</symbol>
	<symbol id="icon-sidebar-library" viewBox="0 0 24 24">
		<path d="M14.5 2.134a1 1 0 011 0l6 3.464a1 1 0 01.5.866V21a1 1 0 01-1 1h-6a1 1 0 01-1-1V3a1 1 0 01.5-.866zM16 4.732V20h4V7.041l-4-2.309zM3 22a1 1 0 01-1-1V3a1 1 0 012 0v18a1 1 0 01-1 1zm6 0a1 1 0 01-1-1V3a1 1 0 012 0v18a1 1 0 01-1 1z" />
	</symbol>
	<symbol id="icon-sidebar-library-active" viewBox="0 0 24 24">
		<path d="M3 22a1 1 0 01-1-1V3a1 1 0 012 0v18a1 1 0 01-1 1zM15.5 2.134A1 1 0 0014 3v18a1 1 0 001 1h6a1 1 0 001-1V6.464a1 1 0 00-.5-.866l-6-3.464zM9 2a1 1 0 00-1 1v18a1 1 0 102 0V3a1 1 0 00-1-1z" />
	</symbol>
	<symbol id="icon-sidebar-create-playlist" viewBox="0 0 16 16">
		<path d="M15.25 8a.75.75 0 01-.75.75H8.75v5.75a.75.75 0 01-1.5 0V8.75H1.5a.75.75 0 010-1.5h5.75V1.5a.75.75 0 011.5 0v5.75h5.75a.75.75 0 01.75.75z" />
	</symbol>
	<symbol id="icon-sidebar-liked-songs" viewBox="0 0 16 16">
		<path d="M15.724 4.22A4.313 4.313 0 0012.192.814a4.269 4.269 0 00-3.622 1.13.837.837 0 01-1.14 0 4.272 4.272 0 00-6.21 5.855l5.916 7.05a1.128 1.128 0 001.727 0l5.916-7.05a4.228 4.228 0 00.945-3.577z" />
	</symbol>
	<symbol id="icon-navbar-search" viewBox="0 0 24 24">
		<path d="M10.533 1.279c-5.18 0-9.407 4.14-9.407 9.279s4.226 9.279 9.407 9.279c2.234 0 4.29-.77 5.907-2.058l4.353 4.353a1 1 0 101.414-1.414l-4.344-4.344a9.157 9.157 0 002.077-5.816c0-5.14-4.226-9.28-9.407-9.28zm-7.407 9.279c0-4.006 3.302-7.28 7.407-7.28s7.407 3.274 7.407 7.28-3.302 7.279-7.407 7.279-7.407-3.273-7.407-7.28z" />
	</symbol>
	<symbol id="icon-navbar-search-clear" viewBox="0 0 24 24">
		<path d="M3.293 3.293a1 1 0 011.414 0L12 10.586l7.293-7.293a1 1 0 111.414 1.414L13.414 12l7.293 7.293a1 1 0 01-1.414 1.414L12 13.414l-7.293 7.293a1 1 0 01-1.414-1.414L10.586 12 3.293 4.707a1 1 0 010-1.414z" />
	</symbol>
	<symbol id="icon-navbar-drop-down" viewBox="0 0 16 16">
		<path d="M14 6l-6 6-6-6h12z" />
	</symbol>
	<symbol id="icon-navbar-drop-up" viewBox="0 0 16 16">
		<path d="M14 10L8 4l-6 6h12z" />
	</symbol>
	<symbol id="icon-player-heart" viewBox="0 0 16 16">
		<path d="M1.69 2A4.582 4.582 0 018 2.023 4.583 4.583 0 0111.88.817h.002a4.618 4.618 0 013.782 3.65v.003a4.543 4.543 0 01-1.011 3.84L9.35 14.629a1.765 1.765 0 01-2.093.464 1.762 1.762 0 01-.605-.463L1.348 8.309A4.582 4.582 0 011.689 2zm3.158.252A3.082 3.082 0 002.49 7.337l.005.005L7.8 13.664a.264.264 0 00.311.069.262.262 0 00.09-.069l5.312-6.33a3.043 3.043 0 00.68-2.573 3.118 3.118 0 00-2.551-2.463 3.079 3.079 0 00-2.612.816l-.007.007a1.501 1.501 0 01-2.045 0l-.009-.008a3.082 3.082 0 00-2.121-.861z" />
	</symbol>
	<symbol id="icon-player-pip-toggle" viewBox="0 0 16 16">
		<path d="M1 3v9h14V3H1zm0-1h14a1 1 0 0 1 1 1v10a1 1 0 0 1-1 1H1a1 1 0 0 1-1-1V3a1 1 0 0 1 1-1z" fill-rule="nonzero" />
		<path d="M10 8h4v3h-4z" />
	</symbol>
	<symbol id="icon-player-shuffle" viewBox="0 0 16 16">
		<path d="M13.151.922a.75.75 0 10-1.06 1.06L13.109 3H11.16a3.75 3.75 0 00-2.873 1.34l-6.173 7.356A2.25 2.25 0 01.39 12.5H0V14h.391a3.75 3.75 0 002.873-1.34l6.173-7.356a2.25 2.25 0 011.724-.804h1.947l-1.017 1.018a.75.75 0 001.06 1.06L15.98 3.75 13.15.922zM.391 3.5H0V2h.391c1.109 0 2.16.49 2.873 1.34L4.89 5.277l-.979 1.167-1.796-2.14A2.25 2.25 0 00.39 3.5z" />
		<path d="M7.5 10.723l.98-1.167.957 1.14a2.25 2.25 0 001.724.804h1.947l-1.017-1.018a.75.75 0 111.06-1.06l2.829 2.828-2.829 2.828a.75.75 0 11-1.06-1.06L13.109 13H11.16a3.75 3.75 0 01-2.873-1.34l-.787-.938z" />
	</symbol>
	<symbol id="icon-player-skip-back" viewBox="0 0 16 16">
		<path d="M3.3 1a.7.7 0 01.7.7v5.15l9.95-5.744a.7.7 0 011.05.606v12.575a.7.7 0 01-1.05.607L4 9.149V14.3a.7.7 0 01-.7.7H1.7a.7.7 0 01-.7-.7V1.7a.7.7 0 01.7-.7h1.6z" />
	</symbol>
	<symbol id="icon-player-skip-forward" viewBox="0 0 16 16">
		<path d="M12.7 1a.7.7 0 00-.7.7v5.15L2.05 1.107A.7.7 0 001 1.712v12.575a.7.7 0 001.05.607L12 9.149V14.3a.7.7 0 00.7.7h1.6a.7.7 0 00.7-.7V1.7a.7.7 0 00-.7-.7h-1.6z" />
	</symbol>
	<symbol id="icon-player-play" viewBox="0 0 16 16">
		<path d="M3 1.713a.7.7 0 011.05-.607l10.89 6.288a.7.7 0 010 1.212L4.05 14.894A.7.7 0 013 14.288V1.713z" />
	</symbol>
	<symbol id="icon-player-pause" viewBox="0 0 16 16">
		<path d="M2.7 1a.7.7 0 0 0-.7.7v12.6a.7.7 0 0 0 .7.7h2.6a.7.7 0 0 0 .7-.7V1.7a.7.7 0 0 0-.7-.7H2.7zm8 0a.7.7 0 0 0-.7.7v12.6a.7.7 0 0 0 .7.7h2.6a.7.7 0 0 0 .7-.7V1.7a.7.7 0 0 0-.7-.7h-2.6z">
		</path>
	</symbol>
	<symbol id="icon-player-repeat" viewBox="0 0 16 16">
		<path d="M0 4.75A3.75 3.75 0 013.75 1h8.5A3.75 3.75 0 0116 4.75v5a3.75 3.75 0 01-3.75 3.75H9.81l1.018 1.018a.75.75 0 11-1.06 1.06L6.939 12.75l2.829-2.828a.75.75 0 111.06 1.06L9.811 12h2.439a2.25 2.25 0 002.25-2.25v-5a2.25 2.25 0 00-2.25-2.25h-8.5A2.25 2.25 0 001.5 4.75v5A2.25 2.25 0 003.75 12H5v1.5H3.75A3.75 3.75 0 010 9.75v-5z" />
	</symbol>
	<symbol id="icon-player-repeat-active" viewBox="0 0 16 16">
		<path d="M0 4.75A3.75 3.75 0 0 1 3.75 1h.75v1.5h-.75A2.25 2.25 0 0 0 1.5 4.75v5A2.25 2.25 0 0 0 3.75 12H5v1.5H3.75A3.75 3.75 0 0 1 0 9.75v-5zM12.25 2.5h-.75V1h.75A3.75 3.75 0 0 1 16 4.75v5a3.75 3.75 0 0 1-3.75 3.75H9.81l1.018 1.018a.75.75 0 1 1-1.06 1.06L6.939 12.75l2.829-2.828a.75.75 0 1 1 1.06 1.06L9.811 12h2.439a2.25 2.25 0 0 0 2.25-2.25v-5a2.25 2.25 0 0 0-2.25-2.25z" />
		<path d="M9.12 8V1H7.787c-.128.72-.76 1.293-1.787 1.313V3.36h1.57V8h1.55z" />
	</symbol>
	<symbol id="icon-player-queue" viewBox="0 0 16 16">
		<path d="M15 15H1v-1.5h14V15zm0-4.5H1V9h14v1.5zm-14-7A2.5 2.5 0 013.5 1h9a2.5 2.5 0 010 5h-9A2.5 2.5 0 011 3.5zm2.5-1a1 1 0 000 2h9a1 1 0 100-2h-9z" />
	</symbol>
	<symbol id="icon-player-devices" viewBox="0 0 16 16">
		<path d="M6 2.75C6 1.784 6.784 1 7.75 1h6.5c.966 0 1.75.784 1.75 1.75v10.5A1.75 1.75 0 0114.25 15h-6.5A1.75 1.75 0 016 13.25V2.75zm1.75-.25a.25.25 0 00-.25.25v10.5c0 .138.112.25.25.25h6.5a.25.25 0 00.25-.25V2.75a.25.25 0 00-.25-.25h-6.5zm-6 0a.25.25 0 00-.25.25v6.5c0 .138.112.25.25.25H4V11H1.75A1.75 1.75 0 010 9.25v-6.5C0 1.784.784 1 1.75 1H4v1.5H1.75zM4 15H2v-1.5h2V15z" />
		<path d="M13 10a2 2 0 11-4 0 2 2 0 014 0zm-1-5a1 1 0 11-2 0 1 1 0 012 0z" />
	</symbol>
	<symbol id="icon-player-volume-off" viewBox="0 0 16 16">
		<path d="M13.86 5.47a.75.75 0 00-1.061 0l-1.47 1.47-1.47-1.47A.75.75 0 008.8 6.53L10.269 8l-1.47 1.47a.75.75 0 101.06 1.06l1.47-1.47 1.47 1.47a.75.75 0 001.06-1.06L12.39 8l1.47-1.47a.75.75 0 000-1.06z" />
		<path d="M10.116 1.5A.75.75 0 008.991.85l-6.925 4a3.642 3.642 0 00-1.33 4.967 3.639 3.639 0 001.33 1.332l6.925 4a.75.75 0 001.125-.649v-1.906a4.73 4.73 0 01-1.5-.694v1.3L2.817 9.852a2.141 2.141 0 01-.781-2.92c.187-.324.456-.594.78-.782l5.8-3.35v1.3c.45-.313.956-.55 1.5-.694V1.5z" />
	</symbol>
	<symbol id="icon-player-volume-low" viewBox="0 0 16 16">
		<path d="M9.741.85a.75.75 0 01.375.65v13a.75.75 0 01-1.125.65l-6.925-4a3.642 3.642 0 01-1.33-4.967 3.639 3.639 0 011.33-1.332l6.925-4a.75.75 0 01.75 0zm-6.924 5.3a2.139 2.139 0 000 3.7l5.8 3.35V2.8l-5.8 3.35zm8.683 4.29V5.56a2.75 2.75 0 010 4.88z" />
	</symbol>
	<symbol id="icon-player-volume-medium" viewBox="0 0 16 16">
		<path d="M9.741.85a.75.75 0 01.375.65v13a.75.75 0 01-1.125.65l-6.925-4a3.642 3.642 0 01-1.33-4.967 3.639 3.639 0 011.33-1.332l6.925-4a.75.75 0 01.75 0zm-6.924 5.3a2.139 2.139 0 000 3.7l5.8 3.35V2.8l-5.8 3.35zm8.683 6.087a4.502 4.502 0 000-8.474v1.65a2.999 2.999 0 010 5.175v1.649z" />
	</symbol>
	<symbol id="icon-player-volume-high" viewBox="0 0 16 16">
		<path d="M9.741.85a.75.75 0 01.375.65v13a.75.75 0 01-1.125.65l-6.925-4a3.642 3.642 0 01-1.33-4.967 3.639 3.639 0 011.33-1.332l6.925-4a.75.75 0 01.75 0zm-6.924 5.3a2.139 2.139 0 000 3.7l5.8 3.35V2.8l-5.8 3.35zm8.683 4.29V5.56a2.75 2.75 0 010 4.88z" />
		<path d="M11.5 13.614a5.752 5.752 0 000-11.228v1.55a4.252 4.252 0 010 8.127v1.55z" />
	</symbol>
	<symbol id="icon-track-paused" viewBox="0 0 16 16" fill="#1DB954">
		<path d="M3.99902 14H5.99902V0H3.99902V14ZM-0.000976562 14H1.99902V4H-0.000976562V14ZM12 7V14H14V7H12ZM8.00002 14H10V10H8.00002V14Z" />
	</symbol>
	<symbol id="icon-logo-colorful" width="60" height="60" viewBox="0 0 60 60" fill="none">
		<path d="M30 0C13.4314 0 0 13.4314 0 30C0 46.5686 13.4314 60 30 60C46.5686 60 60 46.5686 60 30C60 13.4314 46.5686 0 30 0ZM44.6346 43.2461C44.4675 43.5452 44.243 43.8084 43.974 44.0207C43.705 44.2329 43.3968 44.3901 43.067 44.4831C42.7372 44.5762 42.3923 44.6033 42.052 44.5629C41.7118 44.5225 41.3828 44.4155 41.0839 44.2479C37.3441 42.1507 33.2113 40.8488 28.9446 40.4239C24.6689 39.984 20.3484 40.4315 16.2536 41.7386C15.5983 41.9361 14.8916 41.8683 14.2859 41.5497C13.6802 41.2311 13.2239 40.6872 13.0155 40.0353C12.807 39.3834 12.8631 38.6757 13.1716 38.0647C13.4801 37.4538 14.0163 36.9885 14.6646 36.7693C19.4411 35.2409 24.4823 34.7181 29.4707 35.2339C34.4487 35.7303 39.2705 37.2495 43.6339 39.6964C43.9328 39.8637 44.1958 40.0882 44.4079 40.3572C44.6199 40.6261 44.7769 40.9342 44.8699 41.2639C44.9628 41.5935 44.9898 41.9383 44.9495 42.2784C44.9091 42.6185 44.8021 42.9473 44.6346 43.2461ZM48.2282 34.1346C48.07 34.4385 47.8534 34.7081 47.591 34.9283C47.3285 35.1484 47.0252 35.3146 46.6984 35.4175C46.3717 35.5204 46.0279 35.5579 45.6866 35.5279C45.3454 35.4978 45.0134 35.4009 44.7096 35.2425C40.1053 32.8432 35.0849 31.3457 29.9186 30.8304C24.719 30.2897 19.464 30.7576 14.4418 32.2082C13.7769 32.3989 13.0635 32.318 12.4581 31.9834C11.8527 31.6488 11.4047 31.0877 11.2125 30.4232C11.0212 29.7584 11.1016 29.0449 11.4361 28.4394C11.7706 27.8338 12.3318 27.3859 12.9964 27.1939C18.6596 25.561 24.584 25.0325 30.4468 25.6371C36.2712 26.2201 41.9307 27.9096 47.1214 30.615C47.7347 30.9352 48.1958 31.4858 48.4033 32.1457C48.6109 32.8057 48.5479 33.5211 48.2282 34.1346V34.1346ZM49.5257 26.5543C49.1346 26.5543 48.7371 26.4664 48.3632 26.28C42.8937 23.5532 36.9738 21.8443 30.8925 21.2368C24.8013 20.6061 18.6461 21.0927 12.7296 22.6725C12.0691 22.8275 11.3741 22.7193 10.792 22.3706C10.21 22.0219 9.78655 21.4603 9.61155 20.8047C9.43655 20.1492 9.52372 19.4512 9.85458 18.8588C10.1854 18.2665 10.734 17.8262 11.3839 17.6314C17.9109 15.8911 24.7003 15.3541 31.4196 16.0468C38.1279 16.717 44.6582 18.6023 50.6914 21.6107C51.2167 21.8738 51.6378 22.3065 51.8867 22.8387C52.1356 23.3709 52.1976 23.9715 52.0628 24.5433C51.9279 25.1151 51.6041 25.6247 51.1437 25.9897C50.6833 26.3546 50.1132 26.5535 49.5257 26.5543Z" fill="#1ED760" />
	</symbol>
	<symbol id="icon-external-link" viewBox="0 0 16 16">
		<path d="M640 768H128V257.90599999999995L256 256V128H0v768h768V576H640V768zM384 128l128 128L320 448l128 128 192-192 128 128V128H384z" />
	</symbol>
</svg>
